# xmcd
#
# Track frame offsets:
#	150
#	21650
#	44411
#	62588
#	85906
#	102767
#	122191
#	138460
#	161284
#	179113
#	204465
#	211490
#	239072
#	258434
#	280986
#
# Disc length: 4146 seconds
#
# Revision: 0
# Processed by: cddbd v1.5.2PL0 Copyright (c) Steve Scherf et al.
# Submitted via: EZCDAudioConverter 2.1.7.1
#
DISCID=e710300f
DTITLE=Cutting Crew - The Scattering
DYEAR=1900
DGENRE=
TTITLE0=Year In The Wilderness
TTITLE1=The Scattering
TTITLE2=Big Noise
TTITLE3=Everything But My Pride
TTITLE4=Handcuffs For Houdini
TTITLE5=(Between A) Rock And A Hard Place
TTITLE6=Tip Of Your Tongue
TTITLE7=Reach For The Sky
TTITLE8=The Last Thing
TTITLE9=Feel The Wedge
TTITLE10=Binkies Return
TTITLE11=Brag
TTITLE12=More Than A Dream [Demo]
TTITLE13=Into The Night [Demo]
TTITLE14=No Secrets [Demo]
EXTD=
EXTT0=
EXTT1=
EXTT2=
EXTT3=
EXTT4=
EXTT5=
EXTT6=
EXTT7=
EXTT8=
EXTT9=
EXTT10=
EXTT11=
EXTT12=
EXTT13=
EXTT14=
PLAYORDER=
